<mxfile host="app.diagrams.net" modified="2020-05-28T11:35:45.930Z" agent="5.0 (X11)" etag="wclXsNQ_pb3LjHy_-qZi" version="13.1.5" type="github">
  <diagram id="Wp1-61Srdov-XcHByv4Z" name="Page-1">
    <mxGraphModel dx="1348" dy="766" grid="1" gridSize="10" guides="1" tooltips="1" connect="1" arrows="1" fold="1" page="1" pageScale="1" pageWidth="850" pageHeight="1100" math="0" shadow="0">
      <root>
        <mxCell id="0" />
        <mxCell id="1" parent="0" />
        <mxCell id="9cKtubgk1fHoQ99BiT9B-1" value="" style="rounded=0;whiteSpace=wrap;html=1;" parent="1" vertex="1">
          <mxGeometry x="110" y="60" width="680" height="470" as="geometry" />
        </mxCell>
        <mxCell id="9cKtubgk1fHoQ99BiT9B-45" value="" style="group" parent="1" vertex="1" connectable="0">
          <mxGeometry x="350" y="110" width="150" height="270" as="geometry" />
        </mxCell>
        <mxCell id="9cKtubgk1fHoQ99BiT9B-16" value="" style="rounded=0;whiteSpace=wrap;html=1;strokeColor=#000000;" parent="9cKtubgk1fHoQ99BiT9B-45" vertex="1">
          <mxGeometry width="150" height="270" as="geometry" />
        </mxCell>
        <mxCell id="9cKtubgk1fHoQ99BiT9B-19" value="Timer Software Interrupt - fires every 10ms" style="text;html=1;strokeColor=none;fillColor=none;align=center;verticalAlign=middle;whiteSpace=wrap;rounded=0;" parent="9cKtubgk1fHoQ99BiT9B-45" vertex="1">
          <mxGeometry x="10" y="20" width="130" height="20" as="geometry" />
        </mxCell>
        <mxCell id="9cKtubgk1fHoQ99BiT9B-33" value="" style="group" parent="9cKtubgk1fHoQ99BiT9B-45" vertex="1" connectable="0">
          <mxGeometry x="15" y="70" width="120" height="60" as="geometry" />
        </mxCell>
        <mxCell id="9cKtubgk1fHoQ99BiT9B-21" value="" style="rounded=0;whiteSpace=wrap;html=1;" parent="9cKtubgk1fHoQ99BiT9B-33" vertex="1">
          <mxGeometry width="120" height="60" as="geometry" />
        </mxCell>
        <mxCell id="9cKtubgk1fHoQ99BiT9B-32" value="Sample and filter speed" style="text;html=1;strokeColor=none;fillColor=none;align=center;verticalAlign=middle;whiteSpace=wrap;rounded=0;" parent="9cKtubgk1fHoQ99BiT9B-33" vertex="1">
          <mxGeometry x="25" y="20" width="70" height="20" as="geometry" />
        </mxCell>
        <mxCell id="9cKtubgk1fHoQ99BiT9B-31" value="" style="group" parent="9cKtubgk1fHoQ99BiT9B-45" vertex="1" connectable="0">
          <mxGeometry x="15" y="170" width="120" height="60" as="geometry" />
        </mxCell>
        <mxCell id="F8WVMIJ2R083WwgLh9AN-2" value="" style="group" vertex="1" connectable="0" parent="9cKtubgk1fHoQ99BiT9B-31">
          <mxGeometry width="120" height="60" as="geometry" />
        </mxCell>
        <mxCell id="9cKtubgk1fHoQ99BiT9B-20" value="" style="rounded=0;whiteSpace=wrap;html=1;" parent="F8WVMIJ2R083WwgLh9AN-2" vertex="1">
          <mxGeometry width="120" height="60" as="geometry" />
        </mxCell>
        <mxCell id="9cKtubgk1fHoQ99BiT9B-30" value="&lt;div&gt;Acceleration/&lt;/div&gt;&lt;div&gt;Deceleration&lt;/div&gt;" style="text;html=1;strokeColor=none;fillColor=none;align=center;verticalAlign=middle;whiteSpace=wrap;rounded=0;" parent="F8WVMIJ2R083WwgLh9AN-2" vertex="1">
          <mxGeometry x="30" y="20" width="57.5" height="20" as="geometry" />
        </mxCell>
        <mxCell id="9cKtubgk1fHoQ99BiT9B-2" value="Motor" style="text;html=1;strokeColor=none;fillColor=none;align=center;verticalAlign=middle;whiteSpace=wrap;rounded=0;" parent="1" vertex="1">
          <mxGeometry x="370" y="60" width="110" height="30" as="geometry" />
        </mxCell>
        <mxCell id="9cKtubgk1fHoQ99BiT9B-22" value="" style="group" parent="1" vertex="1" connectable="0">
          <mxGeometry x="135" y="110" width="120" height="60" as="geometry" />
        </mxCell>
        <mxCell id="9cKtubgk1fHoQ99BiT9B-11" value="" style="rounded=0;whiteSpace=wrap;html=1;" parent="9cKtubgk1fHoQ99BiT9B-22" vertex="1">
          <mxGeometry width="120" height="60" as="geometry" />
        </mxCell>
        <mxCell id="9cKtubgk1fHoQ99BiT9B-4" value="Output current speed" style="text;html=1;strokeColor=none;fillColor=none;align=center;verticalAlign=middle;whiteSpace=wrap;rounded=0;" parent="9cKtubgk1fHoQ99BiT9B-22" vertex="1">
          <mxGeometry x="7.5" y="20" width="105" height="20" as="geometry" />
        </mxCell>
        <mxCell id="9cKtubgk1fHoQ99BiT9B-24" value="" style="group" parent="1" vertex="1" connectable="0">
          <mxGeometry x="135" y="250" width="120" height="60" as="geometry" />
        </mxCell>
        <mxCell id="9cKtubgk1fHoQ99BiT9B-13" value="" style="rounded=0;whiteSpace=wrap;html=1;" parent="9cKtubgk1fHoQ99BiT9B-24" vertex="1">
          <mxGeometry width="120" height="60" as="geometry" />
        </mxCell>
        <mxCell id="9cKtubgk1fHoQ99BiT9B-6" value="Stop" style="text;html=1;strokeColor=none;fillColor=none;align=center;verticalAlign=middle;whiteSpace=wrap;rounded=0;" parent="9cKtubgk1fHoQ99BiT9B-24" vertex="1">
          <mxGeometry x="40" y="20" width="40" height="20" as="geometry" />
        </mxCell>
        <mxCell id="9cKtubgk1fHoQ99BiT9B-26" value="" style="group" parent="1" vertex="1" connectable="0">
          <mxGeometry x="135" y="410" width="120" height="60" as="geometry" />
        </mxCell>
        <mxCell id="9cKtubgk1fHoQ99BiT9B-15" value="" style="rounded=0;whiteSpace=wrap;html=1;" parent="9cKtubgk1fHoQ99BiT9B-26" vertex="1">
          <mxGeometry width="120" height="60" as="geometry" />
        </mxCell>
        <mxCell id="9cKtubgk1fHoQ99BiT9B-8" value="Set user desired speed" style="text;html=1;strokeColor=none;fillColor=none;align=center;verticalAlign=middle;whiteSpace=wrap;rounded=0;" parent="9cKtubgk1fHoQ99BiT9B-26" vertex="1">
          <mxGeometry x="5" y="20" width="110" height="20" as="geometry" />
        </mxCell>
        <mxCell id="9cKtubgk1fHoQ99BiT9B-34" value="" style="rounded=0;whiteSpace=wrap;html=1;" parent="1" vertex="1">
          <mxGeometry x="560" y="110" width="170" height="290" as="geometry" />
        </mxCell>
        <mxCell id="9cKtubgk1fHoQ99BiT9B-35" value="" style="group" parent="1" vertex="1" connectable="0">
          <mxGeometry x="570" y="440" width="150" height="70" as="geometry" />
        </mxCell>
        <mxCell id="9cKtubgk1fHoQ99BiT9B-17" value="" style="rounded=0;whiteSpace=wrap;html=1;" parent="9cKtubgk1fHoQ99BiT9B-35" vertex="1">
          <mxGeometry x="15" width="120" height="70" as="geometry" />
        </mxCell>
        <mxCell id="9cKtubgk1fHoQ99BiT9B-18" value="Physical Motor" style="text;html=1;strokeColor=none;fillColor=none;align=center;verticalAlign=middle;whiteSpace=wrap;rounded=0;" parent="9cKtubgk1fHoQ99BiT9B-35" vertex="1">
          <mxGeometry x="30" y="26.25" width="90" height="17.5" as="geometry" />
        </mxCell>
        <mxCell id="9cKtubgk1fHoQ99BiT9B-36" value="GPIO Interrupt - Hall Effect Sensors" style="text;html=1;strokeColor=none;fillColor=none;align=center;verticalAlign=middle;whiteSpace=wrap;rounded=0;" parent="1" vertex="1">
          <mxGeometry x="580" y="120" width="130" height="20" as="geometry" />
        </mxCell>
        <mxCell id="9cKtubgk1fHoQ99BiT9B-39" value="" style="group" parent="1" vertex="1" connectable="0">
          <mxGeometry x="585" y="310" width="150" height="60" as="geometry" />
        </mxCell>
        <mxCell id="F8WVMIJ2R083WwgLh9AN-63" value="" style="group" vertex="1" connectable="0" parent="9cKtubgk1fHoQ99BiT9B-39">
          <mxGeometry y="20" width="120" height="60" as="geometry" />
        </mxCell>
        <mxCell id="9cKtubgk1fHoQ99BiT9B-37" value="" style="rounded=0;whiteSpace=wrap;html=1;" parent="F8WVMIJ2R083WwgLh9AN-63" vertex="1">
          <mxGeometry width="120" height="60" as="geometry" />
        </mxCell>
        <mxCell id="9cKtubgk1fHoQ99BiT9B-38" value="Drive Motor" style="text;html=1;strokeColor=none;fillColor=none;align=center;verticalAlign=middle;whiteSpace=wrap;rounded=0;" parent="F8WVMIJ2R083WwgLh9AN-63" vertex="1">
          <mxGeometry x="15" y="20" width="90" height="20" as="geometry" />
        </mxCell>
        <mxCell id="9cKtubgk1fHoQ99BiT9B-40" value="" style="group" parent="1" vertex="1" connectable="0">
          <mxGeometry x="585" y="230" width="120" height="60" as="geometry" />
        </mxCell>
        <mxCell id="9cKtubgk1fHoQ99BiT9B-41" value="" style="rounded=0;whiteSpace=wrap;html=1;" parent="9cKtubgk1fHoQ99BiT9B-40" vertex="1">
          <mxGeometry width="120" height="60" as="geometry" />
        </mxCell>
        <mxCell id="9cKtubgk1fHoQ99BiT9B-42" value="Set duty cycle" style="text;html=1;strokeColor=none;fillColor=none;align=center;verticalAlign=middle;whiteSpace=wrap;rounded=0;" parent="9cKtubgk1fHoQ99BiT9B-40" vertex="1">
          <mxGeometry x="15" y="20" width="90" height="20" as="geometry" />
        </mxCell>
        <mxCell id="F8WVMIJ2R083WwgLh9AN-5" style="edgeStyle=orthogonalEdgeStyle;rounded=0;orthogonalLoop=1;jettySize=auto;html=1;exitX=0.25;exitY=1;exitDx=0;exitDy=0;entryX=0.25;entryY=0;entryDx=0;entryDy=0;" edge="1" parent="1" source="9cKtubgk1fHoQ99BiT9B-41" target="9cKtubgk1fHoQ99BiT9B-37">
          <mxGeometry relative="1" as="geometry" />
        </mxCell>
        <mxCell id="F8WVMIJ2R083WwgLh9AN-8" style="edgeStyle=orthogonalEdgeStyle;rounded=0;orthogonalLoop=1;jettySize=auto;html=1;exitX=1;exitY=0.75;exitDx=0;exitDy=0;entryX=0;entryY=0.25;entryDx=0;entryDy=0;" edge="1" parent="1" source="9cKtubgk1fHoQ99BiT9B-21" target="9cKtubgk1fHoQ99BiT9B-41">
          <mxGeometry relative="1" as="geometry">
            <Array as="points">
              <mxPoint x="510" y="225" />
              <mxPoint x="510" y="245" />
            </Array>
          </mxGeometry>
        </mxCell>
        <mxCell id="F8WVMIJ2R083WwgLh9AN-13" style="edgeStyle=orthogonalEdgeStyle;rounded=0;orthogonalLoop=1;jettySize=auto;html=1;exitX=1;exitY=0.5;exitDx=0;exitDy=0;entryX=0;entryY=0.75;entryDx=0;entryDy=0;" edge="1" parent="1" source="9cKtubgk1fHoQ99BiT9B-20" target="9cKtubgk1fHoQ99BiT9B-41">
          <mxGeometry relative="1" as="geometry">
            <Array as="points">
              <mxPoint x="570" y="310" />
              <mxPoint x="570" y="275" />
            </Array>
          </mxGeometry>
        </mxCell>
        <mxCell id="F8WVMIJ2R083WwgLh9AN-16" style="edgeStyle=orthogonalEdgeStyle;rounded=0;orthogonalLoop=1;jettySize=auto;html=1;exitX=0;exitY=0.25;exitDx=0;exitDy=0;entryX=1;entryY=0.5;entryDx=0;entryDy=0;" edge="1" parent="1" source="9cKtubgk1fHoQ99BiT9B-21" target="9cKtubgk1fHoQ99BiT9B-11">
          <mxGeometry relative="1" as="geometry" />
        </mxCell>
        <mxCell id="F8WVMIJ2R083WwgLh9AN-17" style="edgeStyle=orthogonalEdgeStyle;rounded=0;orthogonalLoop=1;jettySize=auto;html=1;exitX=1;exitY=0.5;exitDx=0;exitDy=0;entryX=0.5;entryY=1;entryDx=0;entryDy=0;" edge="1" parent="1" source="9cKtubgk1fHoQ99BiT9B-15" target="9cKtubgk1fHoQ99BiT9B-20">
          <mxGeometry relative="1" as="geometry" />
        </mxCell>
        <mxCell id="F8WVMIJ2R083WwgLh9AN-18" style="edgeStyle=orthogonalEdgeStyle;rounded=0;orthogonalLoop=1;jettySize=auto;html=1;exitX=1;exitY=0.5;exitDx=0;exitDy=0;entryX=0;entryY=0.75;entryDx=0;entryDy=0;" edge="1" parent="1" source="F8WVMIJ2R083WwgLh9AN-34" target="9cKtubgk1fHoQ99BiT9B-20">
          <mxGeometry relative="1" as="geometry">
            <mxPoint x="257.5" y="350" as="sourcePoint" />
            <Array as="points">
              <mxPoint x="340" y="360" />
              <mxPoint x="340" y="325" />
            </Array>
          </mxGeometry>
        </mxCell>
        <mxCell id="F8WVMIJ2R083WwgLh9AN-19" style="edgeStyle=orthogonalEdgeStyle;rounded=0;orthogonalLoop=1;jettySize=auto;html=1;exitX=1;exitY=0.5;exitDx=0;exitDy=0;entryX=0;entryY=0.5;entryDx=0;entryDy=0;" edge="1" parent="1" source="9cKtubgk1fHoQ99BiT9B-13" target="9cKtubgk1fHoQ99BiT9B-20">
          <mxGeometry relative="1" as="geometry">
            <Array as="points">
              <mxPoint x="270" y="280" />
              <mxPoint x="270" y="310" />
            </Array>
          </mxGeometry>
        </mxCell>
        <mxCell id="F8WVMIJ2R083WwgLh9AN-20" style="edgeStyle=orthogonalEdgeStyle;rounded=0;orthogonalLoop=1;jettySize=auto;html=1;exitX=1;exitY=0.5;exitDx=0;exitDy=0;entryX=0;entryY=0.25;entryDx=0;entryDy=0;" edge="1" parent="1" target="9cKtubgk1fHoQ99BiT9B-20">
          <mxGeometry relative="1" as="geometry">
            <mxPoint x="255" y="210" as="sourcePoint" />
            <Array as="points">
              <mxPoint x="340" y="210" />
              <mxPoint x="340" y="295" />
            </Array>
          </mxGeometry>
        </mxCell>
        <mxCell id="F8WVMIJ2R083WwgLh9AN-24" value="" style="group" vertex="1" connectable="0" parent="1">
          <mxGeometry x="585" y="160" width="120" height="60" as="geometry" />
        </mxCell>
        <mxCell id="F8WVMIJ2R083WwgLh9AN-25" value="" style="rounded=0;whiteSpace=wrap;html=1;" vertex="1" parent="F8WVMIJ2R083WwgLh9AN-24">
          <mxGeometry width="120" height="60" as="geometry" />
        </mxCell>
        <mxCell id="F8WVMIJ2R083WwgLh9AN-26" value="Count interrupts" style="text;html=1;strokeColor=none;fillColor=none;align=center;verticalAlign=middle;whiteSpace=wrap;rounded=0;" vertex="1" parent="F8WVMIJ2R083WwgLh9AN-24">
          <mxGeometry x="15" y="20" width="90" height="20" as="geometry" />
        </mxCell>
        <mxCell id="F8WVMIJ2R083WwgLh9AN-27" style="edgeStyle=orthogonalEdgeStyle;rounded=0;orthogonalLoop=1;jettySize=auto;html=1;exitX=0;exitY=0.5;exitDx=0;exitDy=0;entryX=1;entryY=0.5;entryDx=0;entryDy=0;" edge="1" parent="1" source="F8WVMIJ2R083WwgLh9AN-25" target="9cKtubgk1fHoQ99BiT9B-21">
          <mxGeometry relative="1" as="geometry">
            <Array as="points">
              <mxPoint x="510" y="190" />
              <mxPoint x="510" y="210" />
            </Array>
          </mxGeometry>
        </mxCell>
        <mxCell id="F8WVMIJ2R083WwgLh9AN-29" style="edgeStyle=orthogonalEdgeStyle;rounded=0;orthogonalLoop=1;jettySize=auto;html=1;exitX=0;exitY=0.5;exitDx=0;exitDy=0;" edge="1" parent="1" source="9cKtubgk1fHoQ99BiT9B-11">
          <mxGeometry relative="1" as="geometry">
            <mxPoint x="50" y="140" as="targetPoint" />
          </mxGeometry>
        </mxCell>
        <mxCell id="F8WVMIJ2R083WwgLh9AN-33" value="" style="group" vertex="1" connectable="0" parent="1">
          <mxGeometry x="140" y="330" width="120" height="60" as="geometry" />
        </mxCell>
        <mxCell id="F8WVMIJ2R083WwgLh9AN-34" value="" style="rounded=0;whiteSpace=wrap;html=1;" vertex="1" parent="F8WVMIJ2R083WwgLh9AN-33">
          <mxGeometry width="120" height="60" as="geometry" />
        </mxCell>
        <mxCell id="F8WVMIJ2R083WwgLh9AN-35" value="Start" style="text;html=1;strokeColor=none;fillColor=none;align=center;verticalAlign=middle;whiteSpace=wrap;rounded=0;" vertex="1" parent="F8WVMIJ2R083WwgLh9AN-33">
          <mxGeometry x="40" y="20" width="40" height="20" as="geometry" />
        </mxCell>
        <mxCell id="F8WVMIJ2R083WwgLh9AN-36" value="" style="group" vertex="1" connectable="0" parent="1">
          <mxGeometry x="140" y="180" width="120" height="60" as="geometry" />
        </mxCell>
        <mxCell id="F8WVMIJ2R083WwgLh9AN-37" value="" style="rounded=0;whiteSpace=wrap;html=1;" vertex="1" parent="F8WVMIJ2R083WwgLh9AN-36">
          <mxGeometry width="120" height="60" as="geometry" />
        </mxCell>
        <mxCell id="F8WVMIJ2R083WwgLh9AN-38" value="&lt;div&gt;e-stop&lt;/div&gt;" style="text;html=1;strokeColor=none;fillColor=none;align=center;verticalAlign=middle;whiteSpace=wrap;rounded=0;" vertex="1" parent="F8WVMIJ2R083WwgLh9AN-36">
          <mxGeometry x="40" y="20" width="40" height="20" as="geometry" />
        </mxCell>
        <mxCell id="F8WVMIJ2R083WwgLh9AN-39" value="" style="endArrow=classic;html=1;" edge="1" parent="1">
          <mxGeometry width="50" height="50" relative="1" as="geometry">
            <mxPoint x="50" y="210" as="sourcePoint" />
            <mxPoint x="140" y="210" as="targetPoint" />
          </mxGeometry>
        </mxCell>
        <mxCell id="F8WVMIJ2R083WwgLh9AN-40" value="" style="endArrow=classic;html=1;" edge="1" parent="1">
          <mxGeometry width="50" height="50" relative="1" as="geometry">
            <mxPoint x="50" y="280" as="sourcePoint" />
            <mxPoint x="135" y="280" as="targetPoint" />
          </mxGeometry>
        </mxCell>
        <mxCell id="F8WVMIJ2R083WwgLh9AN-41" value="" style="endArrow=classic;html=1;" edge="1" parent="1">
          <mxGeometry width="50" height="50" relative="1" as="geometry">
            <mxPoint x="55" y="359.5" as="sourcePoint" />
            <mxPoint x="140" y="359.5" as="targetPoint" />
          </mxGeometry>
        </mxCell>
        <mxCell id="F8WVMIJ2R083WwgLh9AN-42" value="" style="endArrow=classic;html=1;" edge="1" parent="1">
          <mxGeometry width="50" height="50" relative="1" as="geometry">
            <mxPoint x="50" y="439" as="sourcePoint" />
            <mxPoint x="135" y="439" as="targetPoint" />
          </mxGeometry>
        </mxCell>
        <mxCell id="F8WVMIJ2R083WwgLh9AN-43" value="From sensors" style="text;html=1;strokeColor=none;fillColor=none;align=center;verticalAlign=middle;whiteSpace=wrap;rounded=0;" vertex="1" parent="1">
          <mxGeometry x="40" y="180" width="70" height="20" as="geometry" />
        </mxCell>
        <mxCell id="F8WVMIJ2R083WwgLh9AN-44" value="From GUI" style="text;html=1;strokeColor=none;fillColor=none;align=center;verticalAlign=middle;whiteSpace=wrap;rounded=0;" vertex="1" parent="1">
          <mxGeometry x="40" y="260" width="70" height="20" as="geometry" />
        </mxCell>
        <mxCell id="F8WVMIJ2R083WwgLh9AN-45" value="From GUI" style="text;html=1;strokeColor=none;fillColor=none;align=center;verticalAlign=middle;whiteSpace=wrap;rounded=0;" vertex="1" parent="1">
          <mxGeometry x="40" y="340" width="70" height="20" as="geometry" />
        </mxCell>
        <mxCell id="F8WVMIJ2R083WwgLh9AN-46" value="From GUI" style="text;html=1;strokeColor=none;fillColor=none;align=center;verticalAlign=middle;whiteSpace=wrap;rounded=0;" vertex="1" parent="1">
          <mxGeometry x="40" y="420" width="70" height="20" as="geometry" />
        </mxCell>
        <mxCell id="F8WVMIJ2R083WwgLh9AN-47" value="To graphing" style="text;html=1;strokeColor=none;fillColor=none;align=center;verticalAlign=middle;whiteSpace=wrap;rounded=0;" vertex="1" parent="1">
          <mxGeometry x="42.5" y="120" width="65" height="20" as="geometry" />
        </mxCell>
        <mxCell id="F8WVMIJ2R083WwgLh9AN-49" style="edgeStyle=orthogonalEdgeStyle;rounded=0;orthogonalLoop=1;jettySize=auto;html=1;exitX=0.25;exitY=1;exitDx=0;exitDy=0;entryX=0.25;entryY=0;entryDx=0;entryDy=0;" edge="1" parent="1" source="9cKtubgk1fHoQ99BiT9B-37" target="9cKtubgk1fHoQ99BiT9B-17">
          <mxGeometry relative="1" as="geometry" />
        </mxCell>
        <mxCell id="F8WVMIJ2R083WwgLh9AN-51" style="edgeStyle=orthogonalEdgeStyle;rounded=0;orthogonalLoop=1;jettySize=auto;html=1;exitX=0.75;exitY=0;exitDx=0;exitDy=0;entryX=0.75;entryY=1;entryDx=0;entryDy=0;" edge="1" parent="1" source="9cKtubgk1fHoQ99BiT9B-17" target="9cKtubgk1fHoQ99BiT9B-34">
          <mxGeometry relative="1" as="geometry" />
        </mxCell>
        <mxCell id="F8WVMIJ2R083WwgLh9AN-52" style="edgeStyle=orthogonalEdgeStyle;rounded=0;orthogonalLoop=1;jettySize=auto;html=1;exitX=1;exitY=0.5;exitDx=0;exitDy=0;entryX=1;entryY=0.5;entryDx=0;entryDy=0;" edge="1" parent="1" source="9cKtubgk1fHoQ99BiT9B-17" target="F8WVMIJ2R083WwgLh9AN-25">
          <mxGeometry relative="1" as="geometry">
            <Array as="points">
              <mxPoint x="750" y="475" />
              <mxPoint x="750" y="190" />
            </Array>
          </mxGeometry>
        </mxCell>
        <mxCell id="F8WVMIJ2R083WwgLh9AN-54" value="Change speed target and start accelerating/decelerating at correct speed" style="text;html=1;strokeColor=none;fillColor=none;align=center;verticalAlign=middle;whiteSpace=wrap;rounded=0;" vertex="1" parent="1">
          <mxGeometry x="270" y="460" width="220" height="20" as="geometry" />
        </mxCell>
        <mxCell id="F8WVMIJ2R083WwgLh9AN-55" value="Accelerate motor" style="text;html=1;strokeColor=none;fillColor=none;align=center;verticalAlign=middle;whiteSpace=wrap;rounded=0;" vertex="1" parent="1">
          <mxGeometry x="270" y="370" width="60" height="20" as="geometry" />
        </mxCell>
        <mxCell id="F8WVMIJ2R083WwgLh9AN-56" value="Decelerate motor" style="text;html=1;strokeColor=none;fillColor=none;align=center;verticalAlign=middle;whiteSpace=wrap;rounded=0;" vertex="1" parent="1">
          <mxGeometry x="280" y="285" width="40" height="20" as="geometry" />
        </mxCell>
        <mxCell id="F8WVMIJ2R083WwgLh9AN-58" value="Decelerate motor" style="text;html=1;strokeColor=none;fillColor=none;align=center;verticalAlign=middle;whiteSpace=wrap;rounded=0;" vertex="1" parent="1">
          <mxGeometry x="280" y="220" width="40" height="20" as="geometry" />
        </mxCell>
        <mxCell id="F8WVMIJ2R083WwgLh9AN-59" value="Num interrupts used to calculate speed" style="text;html=1;strokeColor=none;fillColor=none;align=center;verticalAlign=middle;whiteSpace=wrap;rounded=0;" vertex="1" parent="1">
          <mxGeometry x="510" y="140" width="40" height="20" as="geometry" />
        </mxCell>
        <mxCell id="F8WVMIJ2R083WwgLh9AN-60" value="Both used to set duty cycle" style="text;html=1;strokeColor=none;fillColor=none;align=center;verticalAlign=middle;whiteSpace=wrap;rounded=0;" vertex="1" parent="1">
          <mxGeometry x="500" y="270" width="60" height="20" as="geometry" />
        </mxCell>
        <mxCell id="F8WVMIJ2R083WwgLh9AN-62" value="Text" style="text;html=1;strokeColor=none;fillColor=none;align=center;verticalAlign=middle;whiteSpace=wrap;rounded=0;" vertex="1" parent="1">
          <mxGeometry x="400" y="380" width="40" height="20" as="geometry" />
        </mxCell>
        <mxCell id="F8WVMIJ2R083WwgLh9AN-65" value="Change voltage high time" style="text;html=1;strokeColor=none;fillColor=none;align=center;verticalAlign=middle;whiteSpace=wrap;rounded=0;" vertex="1" parent="1">
          <mxGeometry x="620" y="300" width="90" height="20" as="geometry" />
        </mxCell>
        <mxCell id="F8WVMIJ2R083WwgLh9AN-66" value="Spin motor" style="text;html=1;strokeColor=none;fillColor=none;align=center;verticalAlign=middle;whiteSpace=wrap;rounded=0;" vertex="1" parent="1">
          <mxGeometry x="550" y="410" width="60" height="20" as="geometry" />
        </mxCell>
        <mxCell id="F8WVMIJ2R083WwgLh9AN-67" value="Fire interrupts" style="text;html=1;strokeColor=none;fillColor=none;align=center;verticalAlign=middle;whiteSpace=wrap;rounded=0;" vertex="1" parent="1">
          <mxGeometry x="615" y="410" width="60" height="20" as="geometry" />
        </mxCell>
        <mxCell id="F8WVMIJ2R083WwgLh9AN-68" value="&lt;div&gt;Count interrupts as they fire&lt;/div&gt;" style="text;html=1;strokeColor=none;fillColor=none;align=center;verticalAlign=middle;whiteSpace=wrap;rounded=0;rotation=-90;" vertex="1" parent="1">
          <mxGeometry x="690" y="330" width="150" height="20" as="geometry" />
        </mxCell>
      </root>
    </mxGraphModel>
  </diagram>
</mxfile>
